<?xml version="1.0" encoding="UTF-8" standalone="no"?>
<svg
   height="16"
   width="16"
   viewBox="0 0 16 16"
   version="1.1"
   id="svg1"
   sodipodi:docname="GateReceiver.svg"
   inkscape:version="1.4.3 (0d15f75042, 2025-12-25)"
   xmlns:inkscape="http://www.inkscape.org/namespaces/inkscape"
   xmlns:sodipodi="http://sodipodi.sourceforge.net/DTD/sodipodi-0.dtd"
   xmlns="http://www.w3.org/2000/svg"
   xmlns:svg="http://www.w3.org/2000/svg">
  <defs
     id="defs1" />
  <sodipodi:namedview
     id="namedview1"
     pagecolor="#505050"
     bordercolor="#eeeeee"
     borderopacity="1"
     inkscape:showpageshadow="0"
     inkscape:pageopacity="0"
     inkscape:pagecheckerboard="0"
     inkscape:deskcolor="#505050"
     inkscape:zoom="50"
     inkscape:cx="8"
     inkscape:cy="8"
     inkscape:window-width="1920"
     inkscape:window-height="1011"
     inkscape:window-x="0"
     inkscape:window-y="0"
     inkscape:window-maximized="1"
     inkscape:current-layer="svg1" />
  <path
     d="M8 2C5.443 2 2.209 3.948 1.045 7.705a1 1 0 0 0 0 .55C2.163 12.211 5.5 14 8 14s5.836-1.789 6.961-5.725a1 1 0 0 0 0-.55C13.861 3.935 10.554 2 8 2zm0 2a4 4 0 0 1 0 8 4 4 0 0 1 0-8zm0 2a2 2 0 0 0 0 4 2 2 0 0 0 0-4z"
     fill="#e0e0e0"
     id="path1"
     style="fill:#8eef97;fill-opacity:1" />
</svg>
