<?xml version="1.0" encoding="UTF-8" standalone="no"?>
<svg
   height="16"
   width="16"
   viewBox="0 0 16 16"
   version="1.1"
   id="svg2"
   sodipodi:docname="PuzzleZone.svg"
   inkscape:version="1.4.3 (0d15f75042, 2025-12-25)"
   xmlns:inkscape="http://www.inkscape.org/namespaces/inkscape"
   xmlns:sodipodi="http://sodipodi.sourceforge.net/DTD/sodipodi-0.dtd"
   xmlns="http://www.w3.org/2000/svg"
   xmlns:svg="http://www.w3.org/2000/svg">
  <defs
     id="defs2" />
  <sodipodi:namedview
     id="namedview2"
     pagecolor="#505050"
     bordercolor="#eeeeee"
     borderopacity="1"
     inkscape:showpageshadow="0"
     inkscape:pageopacity="0"
     inkscape:pagecheckerboard="0"
     inkscape:deskcolor="#505050"
     inkscape:zoom="49.6875"
     inkscape:cx="8"
     inkscape:cy="8"
     inkscape:window-width="1920"
     inkscape:window-height="1008"
     inkscape:window-x="0"
     inkscape:window-y="0"
     inkscape:window-maximized="1"
     inkscape:current-layer="svg2" />
  <path
     d="M1 14a1 1 0 0 0 1 1h9.5a1 1 0 0 0 .707-.293l2.5-2.5A1 1 0 0 0 15 11.5V2a1 1 0 0 0-1-1H4.5a1 1 0 0 0-.707.293l-2.5 2.5A1 1 0 0 0 1 4.5zm1.25-9H11v7H2.25zm10 6V4.75L14 3v6.25zm-1-7.25h-8L5 2h8zM7.675 6l3 4-3 1-1.5-.5-1.75.75-1.75-.75L4.25 8l.875 1.25z"
     fill="#e0e0e0"
     id="path1"
     style="fill:#ffaacc" />
  <path
     d="M7.675 6v5L6 10.5l-.875-1.25zM4.25 8v3.25L2.5 10.5"
     fill="#000"
     fill-opacity=".4"
     id="path2" />
</svg>
