<?xml version="1.0" encoding="UTF-8" standalone="no"?>
<svg
   height="16"
   viewBox="0 0 16 16"
   width="16"
   version="1.1"
   id="svg3"
   sodipodi:docname="Reaction.svg"
   inkscape:version="1.4.3 (0d15f75042, 2025-12-25)"
   xmlns:inkscape="http://www.inkscape.org/namespaces/inkscape"
   xmlns:sodipodi="http://sodipodi.sourceforge.net/DTD/sodipodi-0.dtd"
   xmlns="http://www.w3.org/2000/svg"
   xmlns:svg="http://www.w3.org/2000/svg">
  <defs
     id="defs3" />
  <sodipodi:namedview
     id="namedview3"
     pagecolor="#505050"
     bordercolor="#eeeeee"
     borderopacity="1"
     inkscape:showpageshadow="0"
     inkscape:pageopacity="0"
     inkscape:pagecheckerboard="0"
     inkscape:deskcolor="#505050"
     inkscape:zoom="49.6875"
     inkscape:cx="8"
     inkscape:cy="8"
     inkscape:window-width="1920"
     inkscape:window-height="1008"
     inkscape:window-x="0"
     inkscape:window-y="0"
     inkscape:window-maximized="1"
     inkscape:current-layer="svg3" />
  <g
     fill="#8da5f3"
     id="g3">
    <path
       d="M7 0a2 2 0 0 0-2 2h7a2 2 0 0 1 2 2v6a2 2 0 0 0 2-2V2a2 2 0 0 0-2-2z"
       fill-opacity=".4"
       id="path1"
       style="fill:#e0e0e0;fill-opacity:0.58884668" />
    <path
       d="M5 2a2 2 0 0 0-2 2h7a2 2 0 0 1 2 2v7a2 2 0 0 0 2-2V4a2 2 0 0 0-2-2z"
       fill-opacity=".6"
       id="path2"
       style="fill:#e0e0e0;fill-opacity:0.77306211" />
    <path
       d="M3 4a2 2 0 0 0-2 2v7a2 2 0 0 0 2 2h7a2 2 0 0 0 2-2V6a2 2 0 0 0-2-2zM2 9a1 1 0 0 1 2 0v1a1 1 0 0 1-2 0zm7 0a1 1 0 0 1 2 0v1a1 1 0 0 1-2 0zm0 3a2.5 2 0 0 1-5 0z"
       id="path3"
       style="fill:#e0e0e0;fill-opacity:1" />
  </g>
</svg>
